<svg xmlns="http://www.w3.org/2000/svg" fill="none" viewBox="-0.75 -0.75 16 16" stroke="#000000" aria-hidden="true" id="Gift--Streamline-Heroicons-Outline" height="16" width="16">
  <desc>
    Gift Streamline Icon: https://streamlinehq.com
  </desc>
  <path stroke-linecap="round" stroke-linejoin="round" d="M12.6875 6.796875v4.984375a0.90625 0.90625 0 0 1 -0.90625 0.90625H3.171875a0.90625 0.90625 0 0 1 -0.90625 -0.90625v-4.984375M7.25 2.9453125A1.5859375 1.5859375 0 1 0 5.6640625 4.53125H7.25m0 -1.5859375V4.53125m0 -1.5859375A1.5859375 1.5859375 0 1 1 8.8359375 4.53125H7.25m0 0V12.6875m-5.2109375 -5.890625h10.875c0.37518749999999995 0 0.6796875 -0.3045 0.6796875 -0.6796875v-0.90625c0 -0.37518749999999995 -0.3045 -0.6796875 -0.6796875 -0.6796875h-10.875c-0.37518749999999995 0 -0.6796875 0.3045 -0.6796875 0.6796875v0.90625c0 0.37518749999999995 0.3045 0.6796875 0.6796875 0.6796875Z" stroke-width="1.5"></path>
</svg>